%TF.GenerationSoftware,KiCad,Pcbnew,(5.1.9-0-10_14)*%
%TF.CreationDate,2021-03-10T21:09:20-07:00*%
%TF.ProjectId,macropad,6d616372-6f70-4616-942e-6b696361645f,rev?*%
%TF.SameCoordinates,Original*%
%TF.FileFunction,Soldermask,Bot*%
%TF.FilePolarity,Negative*%
%FSLAX46Y46*%
G04 Gerber Fmt 4.6, Leading zero omitted, Abs format (unit mm)*
G04 Created by KiCad (PCBNEW (5.1.9-0-10_14)) date 2021-03-10 21:09:20*
%MOMM*%
%LPD*%
G01*
G04 APERTURE LIST*
%ADD10C,1.700000*%
%ADD11C,4.000000*%
%ADD12C,2.200000*%
%ADD13C,1.498000*%
%ADD14O,1.200000X2.400000*%
%ADD15O,1.158000X2.316000*%
%ADD16C,0.630000*%
%ADD17C,0.600000*%
%ADD18O,3.000000X6.000000*%
%ADD19C,1.650000*%
%ADD20R,1.650000X1.650000*%
G04 APERTURE END LIST*
D10*
%TO.C,SW6*%
X154040000Y-106080000D03*
X143880000Y-106080000D03*
D11*
X148960000Y-106080000D03*
D12*
X145150000Y-103540000D03*
X151500000Y-101000000D03*
%TD*%
D13*
%TO.C,SW1*%
X145745000Y-62655000D03*
X139245000Y-62655000D03*
X145745000Y-58155000D03*
X139245000Y-58155000D03*
%TD*%
D14*
%TO.C,J1*%
X149405000Y-57455000D03*
X158045000Y-57455000D03*
D15*
X149405000Y-61280000D03*
X158045000Y-61280000D03*
D16*
X156725000Y-60555000D03*
X150725000Y-60555000D03*
D17*
X150725000Y-60555000D03*
%TD*%
D10*
%TO.C,SW10*%
X193040000Y-106080000D03*
X182880000Y-106080000D03*
D11*
X187960000Y-106080000D03*
D12*
X184150000Y-103540000D03*
X190500000Y-101000000D03*
%TD*%
D10*
%TO.C,SW9*%
X193040000Y-86580000D03*
X182880000Y-86580000D03*
D11*
X187960000Y-86580000D03*
D12*
X184150000Y-84040000D03*
X190500000Y-81500000D03*
%TD*%
D10*
%TO.C,SW8*%
X173540000Y-106080000D03*
X163380000Y-106080000D03*
D11*
X168460000Y-106080000D03*
D12*
X164650000Y-103540000D03*
X171000000Y-101000000D03*
%TD*%
D10*
%TO.C,SW7*%
X173540000Y-86580000D03*
X163380000Y-86580000D03*
D11*
X168460000Y-86580000D03*
D12*
X164650000Y-84040000D03*
X171000000Y-81500000D03*
%TD*%
D10*
%TO.C,SW5*%
X154040000Y-86580000D03*
X143880000Y-86580000D03*
D11*
X148960000Y-86580000D03*
D12*
X145150000Y-84040000D03*
X151500000Y-81500000D03*
%TD*%
D10*
%TO.C,SW3*%
X134540000Y-106080000D03*
X124380000Y-106080000D03*
D11*
X129460000Y-106080000D03*
D12*
X125650000Y-103540000D03*
X132000000Y-101000000D03*
%TD*%
D10*
%TO.C,SW2*%
X134540000Y-86580000D03*
X124380000Y-86580000D03*
D11*
X129460000Y-86580000D03*
D12*
X125650000Y-84040000D03*
X132000000Y-81500000D03*
%TD*%
D18*
%TO.C,MT2*%
X193660000Y-67000000D03*
X182260000Y-67000000D03*
D19*
X190460000Y-74500000D03*
X187960000Y-74500000D03*
X185460000Y-74500000D03*
X190460000Y-60000000D03*
D20*
X185460000Y-60000000D03*
%TD*%
D18*
%TO.C,MT1*%
X173660000Y-67150000D03*
X162260000Y-67150000D03*
D19*
X170460000Y-74650000D03*
X167960000Y-74650000D03*
X165460000Y-74650000D03*
X170460000Y-60150000D03*
D20*
X165460000Y-60150000D03*
%TD*%
M02*
