M48
; DRILL file {KiCad (5.1.9-0-10_14)} date Wednesday, March 10, 2021 at 08:59:12 PM
; FORMAT={-:-/ absolute / inch / decimal}
; #@! TF.CreationDate,2021-03-10T20:59:12-07:00
; #@! TF.GenerationSoftware,Kicad,Pcbnew,(5.1.9-0-10_14)
FMAT,2
INCH
T1C0.0118
T2C0.0256
T3C0.0390
T4C0.0433
T5C0.0591
T6C0.0787
T7C0.0236
T8C0.0248
T9C0.0669
T10C0.1575
%
G90
G05
T1
X5.3364Y-3.0829
X5.3947Y-2.4085
X5.401Y-2.8368
X5.401Y-2.9093
X5.4057Y-2.7179
X5.4156Y-2.9311
X5.4278Y-2.814
X5.5033Y-2.7388
X5.5227Y-2.7572
X5.5356Y-2.5813
X5.5364Y-3.0459
X5.5565Y-2.7309
X5.6018Y-2.7569
X5.6612Y-2.7774
X5.8077Y-2.8215
X5.8081Y-2.8503
X5.888Y-2.962
X5.9935Y-2.3829
X5.997Y-2.627
X6.0222Y-2.8518
X6.025Y-3.0014
X6.0325Y-2.627
X6.1191Y-2.3829
X6.314Y-2.966
X6.4423Y-3.0457
X6.5124Y-2.8636
X6.5136Y-2.5656
X6.9222Y-2.4715
X6.9364Y-2.3486
X6.9364Y-2.8427
X6.9734Y-2.6585
X7.2289Y-3.0242
T3
X5.4821Y-2.2896
X5.4821Y-2.4667
X5.738Y-2.2896
X5.738Y-2.4667
T4
X6.5142Y-2.3681
X6.5142Y-2.939
X6.6126Y-2.939
X6.711Y-2.3681
X6.711Y-2.939
X7.3016Y-2.3622
X7.3016Y-2.9331
X7.4Y-2.9331
X7.4984Y-2.3622
X7.4984Y-2.9331
T5
X4.9469Y-3.3087
X4.9469Y-4.0764
X5.1969Y-3.2087
X5.1969Y-3.9764
X5.7146Y-3.3087
X5.7146Y-4.0764
X5.9646Y-3.2087
X5.9646Y-3.9764
X6.4823Y-3.3087
X6.4823Y-4.0764
X6.7323Y-3.2087
X6.7323Y-3.9764
X7.25Y-3.3087
X7.25Y-4.0764
X7.5Y-3.2087
X7.5Y-3.9764
T7
X5.9341Y-2.3841
T8
X5.9341Y-2.3841
X6.1703Y-2.3841
T9
X4.8969Y-3.4087
X4.8969Y-4.1764
X5.2969Y-3.4087
X5.2969Y-4.1764
X5.6646Y-3.4087
X5.6646Y-4.1764
X6.0646Y-3.4087
X6.0646Y-4.1764
X6.4323Y-3.4087
X6.4323Y-4.1764
X6.8323Y-3.4087
X6.8323Y-4.1764
X7.2Y-3.4087
X7.2Y-4.1764
X7.6Y-3.4087
X7.6Y-4.1764
T10
X5.0969Y-3.4087
X5.0969Y-4.1764
X5.8646Y-3.4087
X5.8646Y-4.1764
X6.6323Y-3.4087
X6.6323Y-4.1764
X7.4Y-3.4087
X7.4Y-4.1764
T2
G00X5.8821Y-2.2876
M15
G01X5.8821Y-2.2364
M16
G05
G00X5.8821Y-2.4323
M15
G01X5.8821Y-2.3929
M16
G05
G00X6.2222Y-2.2876
M15
G01X6.2222Y-2.2364
M16
G05
G00X6.2222Y-2.4323
M15
G01X6.2222Y-2.3929
M16
G05
T6
G00X6.3882Y-2.628
M15
G01X6.3882Y-2.6594
M16
G05
G00X6.837Y-2.628
M15
G01X6.837Y-2.6594
M16
G05
G00X7.1756Y-2.622
M15
G01X7.1756Y-2.6535
M16
G05
G00X7.6244Y-2.622
M15
G01X7.6244Y-2.6535
M16
G05
T0
M30
