%TF.GenerationSoftware,KiCad,Pcbnew,(5.1.9-0-10_14)*%
%TF.CreationDate,2021-03-10T20:57:34-07:00*%
%TF.ProjectId,macropad,6d616372-6f70-4616-942e-6b696361645f,rev?*%
%TF.SameCoordinates,Original*%
%TF.FileFunction,Soldermask,Top*%
%TF.FilePolarity,Negative*%
%FSLAX46Y46*%
G04 Gerber Fmt 4.6, Leading zero omitted, Abs format (unit mm)*
G04 Created by KiCad (PCBNEW (5.1.9-0-10_14)) date 2021-03-10 20:57:34*
%MOMM*%
%LPD*%
G01*
G04 APERTURE LIST*
%ADD10C,0.010000*%
%ADD11R,1.200000X1.400000*%
%ADD12C,1.700000*%
%ADD13C,4.000000*%
%ADD14C,2.200000*%
%ADD15R,3.100000X3.100000*%
%ADD16C,1.498000*%
%ADD17O,1.200000X2.400000*%
%ADD18O,1.158000X2.316000*%
%ADD19C,0.630000*%
%ADD20R,1.000000X2.000000*%
%ADD21C,0.600000*%
%ADD22R,0.270000X1.000000*%
%ADD23R,0.520000X1.000000*%
%ADD24R,0.500000X0.500000*%
%ADD25O,3.000000X6.000000*%
%ADD26C,1.650000*%
%ADD27R,1.650000X1.650000*%
G04 APERTURE END LIST*
D10*
%TO.C,G\u002A\u002A\u002A*%
G36*
X125861944Y-57518707D02*
G01*
X126161204Y-57576017D01*
X126499910Y-57657059D01*
X126837115Y-57753636D01*
X126940334Y-57787265D01*
X127264320Y-57965208D01*
X127573977Y-58250023D01*
X127812768Y-58584594D01*
X127883450Y-58740039D01*
X128008090Y-58958758D01*
X128172009Y-59106422D01*
X128182675Y-59111614D01*
X128454794Y-59326230D01*
X128630975Y-59672371D01*
X128706244Y-60138732D01*
X128708314Y-60305667D01*
X128733799Y-60764790D01*
X128821064Y-61135037D01*
X128838292Y-61177597D01*
X128921336Y-61391256D01*
X128926842Y-61531453D01*
X128850242Y-61677532D01*
X128805848Y-61741000D01*
X128690356Y-61918637D01*
X128634596Y-62034743D01*
X128633667Y-62042220D01*
X128584401Y-62139533D01*
X128462164Y-62315097D01*
X128305298Y-62519557D01*
X128152145Y-62703557D01*
X128041048Y-62817743D01*
X128020463Y-62831556D01*
X127953864Y-62923337D01*
X128012936Y-63090505D01*
X128201902Y-63339821D01*
X128524986Y-63678047D01*
X128587179Y-63738708D01*
X128859005Y-64017833D01*
X129084093Y-64278778D01*
X129232736Y-64485451D01*
X129274251Y-64573440D01*
X129369326Y-64771387D01*
X129480334Y-64877667D01*
X129615770Y-65018048D01*
X129683874Y-65171767D01*
X129747447Y-65331255D01*
X129807755Y-65385667D01*
X129894259Y-65466868D01*
X130000530Y-65700044D01*
X130122275Y-66069557D01*
X130255200Y-66559767D01*
X130395011Y-67155034D01*
X130537413Y-67839719D01*
X130657067Y-68479096D01*
X130732898Y-68804140D01*
X130809149Y-68969802D01*
X130877185Y-68985789D01*
X130928366Y-68861811D01*
X130954056Y-68607574D01*
X130945618Y-68232789D01*
X130944326Y-68214945D01*
X132196351Y-68214945D01*
X132211918Y-68324759D01*
X132240820Y-68326070D01*
X132261031Y-68212753D01*
X132247504Y-68163792D01*
X132209909Y-68131722D01*
X132196351Y-68214945D01*
X130944326Y-68214945D01*
X130940394Y-68160640D01*
X130895466Y-67591279D01*
X131236272Y-67250473D01*
X131492716Y-67016053D01*
X131658337Y-66920024D01*
X131739025Y-66961777D01*
X131740670Y-67140703D01*
X131730825Y-67199398D01*
X131721543Y-67437887D01*
X131792456Y-67557096D01*
X131927513Y-67537839D01*
X131981709Y-67499255D01*
X132066480Y-67454563D01*
X132100443Y-67533004D01*
X132105000Y-67663957D01*
X132143876Y-67879687D01*
X132232000Y-67979716D01*
X132327007Y-68087259D01*
X132356465Y-68257696D01*
X132315619Y-68408013D01*
X132259101Y-68452855D01*
X132200106Y-68546728D01*
X132216170Y-68634611D01*
X132299824Y-68733852D01*
X132358402Y-68730370D01*
X132436740Y-68738984D01*
X132443667Y-68771741D01*
X132372214Y-68861905D01*
X132199309Y-68950927D01*
X132189767Y-68954319D01*
X132014955Y-69050045D01*
X132002576Y-69138432D01*
X132147057Y-69190998D01*
X132236997Y-69195667D01*
X132393705Y-69225286D01*
X132443667Y-69280334D01*
X132379238Y-69362540D01*
X132359000Y-69365000D01*
X132282717Y-69433058D01*
X132274334Y-69484945D01*
X132231696Y-69611448D01*
X132202829Y-69633111D01*
X132138383Y-69731762D01*
X132091043Y-69924289D01*
X132070191Y-70138281D01*
X132085213Y-70301330D01*
X132110913Y-70342321D01*
X132129803Y-70436657D01*
X132037255Y-70595268D01*
X131862264Y-70787814D01*
X131633826Y-70983953D01*
X131380934Y-71153344D01*
X131289397Y-71201980D01*
X131013350Y-71363328D01*
X130830844Y-71522755D01*
X130784762Y-71600459D01*
X130714870Y-71756944D01*
X130580123Y-72004885D01*
X130408100Y-72293859D01*
X130386616Y-72328334D01*
X130209383Y-72625004D01*
X130108760Y-72854645D01*
X130069624Y-73083131D01*
X130076850Y-73376338D01*
X130095705Y-73595438D01*
X130041738Y-73797730D01*
X129863031Y-73938050D01*
X129598451Y-73998087D01*
X129309417Y-73965832D01*
X129024543Y-73912380D01*
X128872604Y-73946211D01*
X128838093Y-74073133D01*
X128850175Y-74137812D01*
X128851158Y-74449889D01*
X128687531Y-74722706D01*
X128359217Y-74956378D01*
X128274580Y-74998056D01*
X127873925Y-75154610D01*
X127567084Y-75197154D01*
X127322061Y-75125016D01*
X127139551Y-74974167D01*
X127019713Y-74828038D01*
X126963131Y-74685254D01*
X126956879Y-74485548D01*
X126980657Y-74233334D01*
X127028153Y-73938641D01*
X127062783Y-73810000D01*
X129226334Y-73810000D01*
X129268667Y-73852334D01*
X129311000Y-73810000D01*
X129268667Y-73767667D01*
X129226334Y-73810000D01*
X127062783Y-73810000D01*
X127091920Y-73701768D01*
X127142026Y-73598334D01*
X127252756Y-73424417D01*
X127362372Y-73197042D01*
X127435920Y-72993570D01*
X127448334Y-72920415D01*
X127374741Y-72852787D01*
X127189149Y-72772503D01*
X127088500Y-72740778D01*
X126834767Y-72642292D01*
X126639032Y-72520898D01*
X126601667Y-72483882D01*
X126445469Y-72377584D01*
X126175869Y-72323018D01*
X126009000Y-72312617D01*
X125521320Y-72307913D01*
X125157560Y-72331664D01*
X124931570Y-72381945D01*
X124857200Y-72456835D01*
X124860696Y-72472043D01*
X124858972Y-72570690D01*
X124831593Y-72582334D01*
X124765003Y-72654986D01*
X124712507Y-72815167D01*
X124622516Y-73086364D01*
X124462287Y-73263580D01*
X124195104Y-73375819D01*
X123934667Y-73429651D01*
X123523496Y-73492004D01*
X123246199Y-73514187D01*
X123070478Y-73488609D01*
X122964037Y-73407679D01*
X122894578Y-73263807D01*
X122867480Y-73178838D01*
X122812428Y-72942635D01*
X122833052Y-72778347D01*
X122927582Y-72617306D01*
X123069906Y-72408571D01*
X123175972Y-72241498D01*
X123303561Y-72050347D01*
X123365379Y-71970173D01*
X123403917Y-71848459D01*
X123445041Y-71595671D01*
X123485221Y-71249956D01*
X123520924Y-70849465D01*
X123548621Y-70432345D01*
X123564782Y-70036744D01*
X123567304Y-69788334D01*
X123542999Y-69200315D01*
X123483667Y-68588052D01*
X123396841Y-68007450D01*
X123290051Y-67514413D01*
X123236493Y-67333000D01*
X123081022Y-66729762D01*
X122992007Y-66087595D01*
X122974119Y-65466540D01*
X123032027Y-64926640D01*
X123044782Y-64868044D01*
X123186254Y-64367684D01*
X123328137Y-63996827D01*
X124168650Y-63996827D01*
X124179608Y-64080258D01*
X124225190Y-64238227D01*
X124231000Y-64286814D01*
X124305810Y-64341339D01*
X124491301Y-64385484D01*
X124548500Y-64392657D01*
X124765081Y-64417014D01*
X124897336Y-64435055D01*
X124908334Y-64437344D01*
X124967068Y-64376213D01*
X125011400Y-64298216D01*
X125191220Y-64298216D01*
X125203835Y-64412742D01*
X125251231Y-64456948D01*
X125344356Y-64492182D01*
X125469897Y-64479995D01*
X125667039Y-64410387D01*
X125974971Y-64273358D01*
X125980268Y-64270908D01*
X126248745Y-64120495D01*
X126379853Y-63964959D01*
X126402364Y-63766447D01*
X126397014Y-63722613D01*
X126332238Y-63604872D01*
X126218948Y-63535017D01*
X126120260Y-63538709D01*
X126093667Y-63599284D01*
X126030590Y-63697600D01*
X125881407Y-63799874D01*
X125706187Y-63877519D01*
X125565001Y-63901946D01*
X125518842Y-63872858D01*
X125449130Y-63780882D01*
X125359352Y-63853577D01*
X125254750Y-64083781D01*
X125191220Y-64298216D01*
X125011400Y-64298216D01*
X125061708Y-64209708D01*
X125093241Y-64144845D01*
X125235815Y-63840871D01*
X124905552Y-63885169D01*
X124684454Y-63895907D01*
X124593764Y-63856216D01*
X124593645Y-63842650D01*
X124545876Y-63738995D01*
X124506167Y-63717028D01*
X124415515Y-63748878D01*
X124400334Y-63812278D01*
X124332015Y-63928419D01*
X124264275Y-63946334D01*
X124168650Y-63996827D01*
X123328137Y-63996827D01*
X123362234Y-63907705D01*
X123407467Y-63819334D01*
X124061667Y-63819334D01*
X124104000Y-63861667D01*
X124146334Y-63819334D01*
X124104000Y-63777000D01*
X124061667Y-63819334D01*
X123407467Y-63819334D01*
X123489261Y-63659537D01*
X124175437Y-63659537D01*
X124188667Y-63692334D01*
X124264749Y-63773104D01*
X124278330Y-63777000D01*
X124314696Y-63711494D01*
X124315667Y-63692334D01*
X124250579Y-63610920D01*
X124226003Y-63607667D01*
X124175437Y-63659537D01*
X123489261Y-63659537D01*
X123552730Y-63535541D01*
X123683132Y-63353667D01*
X123795602Y-63195149D01*
X123836925Y-63020030D01*
X123821831Y-62758453D01*
X123817019Y-62718667D01*
X123776030Y-62466668D01*
X123721194Y-62346062D01*
X123631337Y-62319063D01*
X123595488Y-62323384D01*
X123244894Y-62380311D01*
X123018581Y-62404772D01*
X122873485Y-62390179D01*
X122766543Y-62329944D01*
X122654692Y-62217479D01*
X122614405Y-62173297D01*
X122528612Y-62039582D01*
X124317388Y-62039582D01*
X124423427Y-62078086D01*
X124532330Y-62083667D01*
X124684724Y-62056025D01*
X124689243Y-61977834D01*
X124663855Y-61914351D01*
X124739035Y-61973686D01*
X124743513Y-61977834D01*
X124905542Y-62053204D01*
X125127213Y-62083667D01*
X125398969Y-62118356D01*
X125678035Y-62201946D01*
X125681780Y-62203512D01*
X125903833Y-62285491D01*
X125985298Y-62278327D01*
X125933909Y-62174566D01*
X125835825Y-62055119D01*
X125678494Y-61911989D01*
X125530757Y-61892935D01*
X125449361Y-61917872D01*
X125298699Y-61947008D01*
X125278316Y-61873531D01*
X125387743Y-61702427D01*
X125479834Y-61594213D01*
X125609838Y-61429987D01*
X125669861Y-61316429D01*
X125670334Y-61310917D01*
X125588658Y-61235837D01*
X125355239Y-61173416D01*
X125035334Y-61132591D01*
X124858639Y-61133761D01*
X124800457Y-61207911D01*
X124804635Y-61321667D01*
X124888897Y-61536302D01*
X125006291Y-61669113D01*
X125100241Y-61749464D01*
X125095724Y-61797367D01*
X124968153Y-61831390D01*
X124750156Y-61862529D01*
X124497956Y-61914339D01*
X124347965Y-61979179D01*
X124317388Y-62039582D01*
X122528612Y-62039582D01*
X122425048Y-61878172D01*
X122369920Y-61576879D01*
X122445556Y-61330813D01*
X122449150Y-61185312D01*
X122336309Y-60934811D01*
X122233467Y-60764748D01*
X122073501Y-60497021D01*
X121996062Y-60297120D01*
X121982497Y-60097087D01*
X122001271Y-59918759D01*
X122024179Y-59813350D01*
X124253890Y-59813350D01*
X124268663Y-59952285D01*
X124325845Y-60088533D01*
X124415924Y-60127744D01*
X124599596Y-60091892D01*
X124631144Y-60083498D01*
X124762280Y-60021515D01*
X124756044Y-59957189D01*
X126105093Y-59957189D01*
X126144068Y-60123150D01*
X126284167Y-60218060D01*
X126497768Y-60274007D01*
X126625072Y-60211524D01*
X126694319Y-60074872D01*
X126708172Y-59914516D01*
X126587913Y-59782507D01*
X126559071Y-59762947D01*
X126402354Y-59678113D01*
X126298047Y-59698349D01*
X126225500Y-59762596D01*
X126105093Y-59957189D01*
X124756044Y-59957189D01*
X124751283Y-59908094D01*
X124728530Y-59862770D01*
X124679595Y-59744802D01*
X124730134Y-59749854D01*
X124730553Y-59750113D01*
X124810265Y-59736905D01*
X124823667Y-59675664D01*
X124759838Y-59569282D01*
X124603520Y-59552217D01*
X124407463Y-59626730D01*
X124363806Y-59655951D01*
X124253890Y-59813350D01*
X122024179Y-59813350D01*
X122060447Y-59646470D01*
X122153042Y-59508314D01*
X122216852Y-59478864D01*
X122331547Y-59395902D01*
X122333446Y-59320873D01*
X122357990Y-59224854D01*
X122455657Y-59205000D01*
X122575458Y-59163104D01*
X122635119Y-59017196D01*
X122646738Y-58736941D01*
X122646482Y-58726588D01*
X122717716Y-58642976D01*
X122890734Y-58579820D01*
X123076636Y-58497454D01*
X123325243Y-58329370D01*
X123578423Y-58115812D01*
X123860122Y-57872714D01*
X124116523Y-57718033D01*
X124402771Y-57631378D01*
X124774011Y-57592358D01*
X125016080Y-57584182D01*
X125286925Y-57568119D01*
X125481248Y-57537149D01*
X125545558Y-57508068D01*
X125643079Y-57493325D01*
X125861944Y-57518707D01*
G37*
X125861944Y-57518707D02*
X126161204Y-57576017D01*
X126499910Y-57657059D01*
X126837115Y-57753636D01*
X126940334Y-57787265D01*
X127264320Y-57965208D01*
X127573977Y-58250023D01*
X127812768Y-58584594D01*
X127883450Y-58740039D01*
X128008090Y-58958758D01*
X128172009Y-59106422D01*
X128182675Y-59111614D01*
X128454794Y-59326230D01*
X128630975Y-59672371D01*
X128706244Y-60138732D01*
X128708314Y-60305667D01*
X128733799Y-60764790D01*
X128821064Y-61135037D01*
X128838292Y-61177597D01*
X128921336Y-61391256D01*
X128926842Y-61531453D01*
X128850242Y-61677532D01*
X128805848Y-61741000D01*
X128690356Y-61918637D01*
X128634596Y-62034743D01*
X128633667Y-62042220D01*
X128584401Y-62139533D01*
X128462164Y-62315097D01*
X128305298Y-62519557D01*
X128152145Y-62703557D01*
X128041048Y-62817743D01*
X128020463Y-62831556D01*
X127953864Y-62923337D01*
X128012936Y-63090505D01*
X128201902Y-63339821D01*
X128524986Y-63678047D01*
X128587179Y-63738708D01*
X128859005Y-64017833D01*
X129084093Y-64278778D01*
X129232736Y-64485451D01*
X129274251Y-64573440D01*
X129369326Y-64771387D01*
X129480334Y-64877667D01*
X129615770Y-65018048D01*
X129683874Y-65171767D01*
X129747447Y-65331255D01*
X129807755Y-65385667D01*
X129894259Y-65466868D01*
X130000530Y-65700044D01*
X130122275Y-66069557D01*
X130255200Y-66559767D01*
X130395011Y-67155034D01*
X130537413Y-67839719D01*
X130657067Y-68479096D01*
X130732898Y-68804140D01*
X130809149Y-68969802D01*
X130877185Y-68985789D01*
X130928366Y-68861811D01*
X130954056Y-68607574D01*
X130945618Y-68232789D01*
X130944326Y-68214945D01*
X132196351Y-68214945D01*
X132211918Y-68324759D01*
X132240820Y-68326070D01*
X132261031Y-68212753D01*
X132247504Y-68163792D01*
X132209909Y-68131722D01*
X132196351Y-68214945D01*
X130944326Y-68214945D01*
X130940394Y-68160640D01*
X130895466Y-67591279D01*
X131236272Y-67250473D01*
X131492716Y-67016053D01*
X131658337Y-66920024D01*
X131739025Y-66961777D01*
X131740670Y-67140703D01*
X131730825Y-67199398D01*
X131721543Y-67437887D01*
X131792456Y-67557096D01*
X131927513Y-67537839D01*
X131981709Y-67499255D01*
X132066480Y-67454563D01*
X132100443Y-67533004D01*
X132105000Y-67663957D01*
X132143876Y-67879687D01*
X132232000Y-67979716D01*
X132327007Y-68087259D01*
X132356465Y-68257696D01*
X132315619Y-68408013D01*
X132259101Y-68452855D01*
X132200106Y-68546728D01*
X132216170Y-68634611D01*
X132299824Y-68733852D01*
X132358402Y-68730370D01*
X132436740Y-68738984D01*
X132443667Y-68771741D01*
X132372214Y-68861905D01*
X132199309Y-68950927D01*
X132189767Y-68954319D01*
X132014955Y-69050045D01*
X132002576Y-69138432D01*
X132147057Y-69190998D01*
X132236997Y-69195667D01*
X132393705Y-69225286D01*
X132443667Y-69280334D01*
X132379238Y-69362540D01*
X132359000Y-69365000D01*
X132282717Y-69433058D01*
X132274334Y-69484945D01*
X132231696Y-69611448D01*
X132202829Y-69633111D01*
X132138383Y-69731762D01*
X132091043Y-69924289D01*
X132070191Y-70138281D01*
X132085213Y-70301330D01*
X132110913Y-70342321D01*
X132129803Y-70436657D01*
X132037255Y-70595268D01*
X131862264Y-70787814D01*
X131633826Y-70983953D01*
X131380934Y-71153344D01*
X131289397Y-71201980D01*
X131013350Y-71363328D01*
X130830844Y-71522755D01*
X130784762Y-71600459D01*
X130714870Y-71756944D01*
X130580123Y-72004885D01*
X130408100Y-72293859D01*
X130386616Y-72328334D01*
X130209383Y-72625004D01*
X130108760Y-72854645D01*
X130069624Y-73083131D01*
X130076850Y-73376338D01*
X130095705Y-73595438D01*
X130041738Y-73797730D01*
X129863031Y-73938050D01*
X129598451Y-73998087D01*
X129309417Y-73965832D01*
X129024543Y-73912380D01*
X128872604Y-73946211D01*
X128838093Y-74073133D01*
X128850175Y-74137812D01*
X128851158Y-74449889D01*
X128687531Y-74722706D01*
X128359217Y-74956378D01*
X128274580Y-74998056D01*
X127873925Y-75154610D01*
X127567084Y-75197154D01*
X127322061Y-75125016D01*
X127139551Y-74974167D01*
X127019713Y-74828038D01*
X126963131Y-74685254D01*
X126956879Y-74485548D01*
X126980657Y-74233334D01*
X127028153Y-73938641D01*
X127062783Y-73810000D01*
X129226334Y-73810000D01*
X129268667Y-73852334D01*
X129311000Y-73810000D01*
X129268667Y-73767667D01*
X129226334Y-73810000D01*
X127062783Y-73810000D01*
X127091920Y-73701768D01*
X127142026Y-73598334D01*
X127252756Y-73424417D01*
X127362372Y-73197042D01*
X127435920Y-72993570D01*
X127448334Y-72920415D01*
X127374741Y-72852787D01*
X127189149Y-72772503D01*
X127088500Y-72740778D01*
X126834767Y-72642292D01*
X126639032Y-72520898D01*
X126601667Y-72483882D01*
X126445469Y-72377584D01*
X126175869Y-72323018D01*
X126009000Y-72312617D01*
X125521320Y-72307913D01*
X125157560Y-72331664D01*
X124931570Y-72381945D01*
X124857200Y-72456835D01*
X124860696Y-72472043D01*
X124858972Y-72570690D01*
X124831593Y-72582334D01*
X124765003Y-72654986D01*
X124712507Y-72815167D01*
X124622516Y-73086364D01*
X124462287Y-73263580D01*
X124195104Y-73375819D01*
X123934667Y-73429651D01*
X123523496Y-73492004D01*
X123246199Y-73514187D01*
X123070478Y-73488609D01*
X122964037Y-73407679D01*
X122894578Y-73263807D01*
X122867480Y-73178838D01*
X122812428Y-72942635D01*
X122833052Y-72778347D01*
X122927582Y-72617306D01*
X123069906Y-72408571D01*
X123175972Y-72241498D01*
X123303561Y-72050347D01*
X123365379Y-71970173D01*
X123403917Y-71848459D01*
X123445041Y-71595671D01*
X123485221Y-71249956D01*
X123520924Y-70849465D01*
X123548621Y-70432345D01*
X123564782Y-70036744D01*
X123567304Y-69788334D01*
X123542999Y-69200315D01*
X123483667Y-68588052D01*
X123396841Y-68007450D01*
X123290051Y-67514413D01*
X123236493Y-67333000D01*
X123081022Y-66729762D01*
X122992007Y-66087595D01*
X122974119Y-65466540D01*
X123032027Y-64926640D01*
X123044782Y-64868044D01*
X123186254Y-64367684D01*
X123328137Y-63996827D01*
X124168650Y-63996827D01*
X124179608Y-64080258D01*
X124225190Y-64238227D01*
X124231000Y-64286814D01*
X124305810Y-64341339D01*
X124491301Y-64385484D01*
X124548500Y-64392657D01*
X124765081Y-64417014D01*
X124897336Y-64435055D01*
X124908334Y-64437344D01*
X124967068Y-64376213D01*
X125011400Y-64298216D01*
X125191220Y-64298216D01*
X125203835Y-64412742D01*
X125251231Y-64456948D01*
X125344356Y-64492182D01*
X125469897Y-64479995D01*
X125667039Y-64410387D01*
X125974971Y-64273358D01*
X125980268Y-64270908D01*
X126248745Y-64120495D01*
X126379853Y-63964959D01*
X126402364Y-63766447D01*
X126397014Y-63722613D01*
X126332238Y-63604872D01*
X126218948Y-63535017D01*
X126120260Y-63538709D01*
X126093667Y-63599284D01*
X126030590Y-63697600D01*
X125881407Y-63799874D01*
X125706187Y-63877519D01*
X125565001Y-63901946D01*
X125518842Y-63872858D01*
X125449130Y-63780882D01*
X125359352Y-63853577D01*
X125254750Y-64083781D01*
X125191220Y-64298216D01*
X125011400Y-64298216D01*
X125061708Y-64209708D01*
X125093241Y-64144845D01*
X125235815Y-63840871D01*
X124905552Y-63885169D01*
X124684454Y-63895907D01*
X124593764Y-63856216D01*
X124593645Y-63842650D01*
X124545876Y-63738995D01*
X124506167Y-63717028D01*
X124415515Y-63748878D01*
X124400334Y-63812278D01*
X124332015Y-63928419D01*
X124264275Y-63946334D01*
X124168650Y-63996827D01*
X123328137Y-63996827D01*
X123362234Y-63907705D01*
X123407467Y-63819334D01*
X124061667Y-63819334D01*
X124104000Y-63861667D01*
X124146334Y-63819334D01*
X124104000Y-63777000D01*
X124061667Y-63819334D01*
X123407467Y-63819334D01*
X123489261Y-63659537D01*
X124175437Y-63659537D01*
X124188667Y-63692334D01*
X124264749Y-63773104D01*
X124278330Y-63777000D01*
X124314696Y-63711494D01*
X124315667Y-63692334D01*
X124250579Y-63610920D01*
X124226003Y-63607667D01*
X124175437Y-63659537D01*
X123489261Y-63659537D01*
X123552730Y-63535541D01*
X123683132Y-63353667D01*
X123795602Y-63195149D01*
X123836925Y-63020030D01*
X123821831Y-62758453D01*
X123817019Y-62718667D01*
X123776030Y-62466668D01*
X123721194Y-62346062D01*
X123631337Y-62319063D01*
X123595488Y-62323384D01*
X123244894Y-62380311D01*
X123018581Y-62404772D01*
X122873485Y-62390179D01*
X122766543Y-62329944D01*
X122654692Y-62217479D01*
X122614405Y-62173297D01*
X122528612Y-62039582D01*
X124317388Y-62039582D01*
X124423427Y-62078086D01*
X124532330Y-62083667D01*
X124684724Y-62056025D01*
X124689243Y-61977834D01*
X124663855Y-61914351D01*
X124739035Y-61973686D01*
X124743513Y-61977834D01*
X124905542Y-62053204D01*
X125127213Y-62083667D01*
X125398969Y-62118356D01*
X125678035Y-62201946D01*
X125681780Y-62203512D01*
X125903833Y-62285491D01*
X125985298Y-62278327D01*
X125933909Y-62174566D01*
X125835825Y-62055119D01*
X125678494Y-61911989D01*
X125530757Y-61892935D01*
X125449361Y-61917872D01*
X125298699Y-61947008D01*
X125278316Y-61873531D01*
X125387743Y-61702427D01*
X125479834Y-61594213D01*
X125609838Y-61429987D01*
X125669861Y-61316429D01*
X125670334Y-61310917D01*
X125588658Y-61235837D01*
X125355239Y-61173416D01*
X125035334Y-61132591D01*
X124858639Y-61133761D01*
X124800457Y-61207911D01*
X124804635Y-61321667D01*
X124888897Y-61536302D01*
X125006291Y-61669113D01*
X125100241Y-61749464D01*
X125095724Y-61797367D01*
X124968153Y-61831390D01*
X124750156Y-61862529D01*
X124497956Y-61914339D01*
X124347965Y-61979179D01*
X124317388Y-62039582D01*
X122528612Y-62039582D01*
X122425048Y-61878172D01*
X122369920Y-61576879D01*
X122445556Y-61330813D01*
X122449150Y-61185312D01*
X122336309Y-60934811D01*
X122233467Y-60764748D01*
X122073501Y-60497021D01*
X121996062Y-60297120D01*
X121982497Y-60097087D01*
X122001271Y-59918759D01*
X122024179Y-59813350D01*
X124253890Y-59813350D01*
X124268663Y-59952285D01*
X124325845Y-60088533D01*
X124415924Y-60127744D01*
X124599596Y-60091892D01*
X124631144Y-60083498D01*
X124762280Y-60021515D01*
X124756044Y-59957189D01*
X126105093Y-59957189D01*
X126144068Y-60123150D01*
X126284167Y-60218060D01*
X126497768Y-60274007D01*
X126625072Y-60211524D01*
X126694319Y-60074872D01*
X126708172Y-59914516D01*
X126587913Y-59782507D01*
X126559071Y-59762947D01*
X126402354Y-59678113D01*
X126298047Y-59698349D01*
X126225500Y-59762596D01*
X126105093Y-59957189D01*
X124756044Y-59957189D01*
X124751283Y-59908094D01*
X124728530Y-59862770D01*
X124679595Y-59744802D01*
X124730134Y-59749854D01*
X124730553Y-59750113D01*
X124810265Y-59736905D01*
X124823667Y-59675664D01*
X124759838Y-59569282D01*
X124603520Y-59552217D01*
X124407463Y-59626730D01*
X124363806Y-59655951D01*
X124253890Y-59813350D01*
X122024179Y-59813350D01*
X122060447Y-59646470D01*
X122153042Y-59508314D01*
X122216852Y-59478864D01*
X122331547Y-59395902D01*
X122333446Y-59320873D01*
X122357990Y-59224854D01*
X122455657Y-59205000D01*
X122575458Y-59163104D01*
X122635119Y-59017196D01*
X122646738Y-58736941D01*
X122646482Y-58726588D01*
X122717716Y-58642976D01*
X122890734Y-58579820D01*
X123076636Y-58497454D01*
X123325243Y-58329370D01*
X123578423Y-58115812D01*
X123860122Y-57872714D01*
X124116523Y-57718033D01*
X124402771Y-57631378D01*
X124774011Y-57592358D01*
X125016080Y-57584182D01*
X125286925Y-57568119D01*
X125481248Y-57537149D01*
X125545558Y-57508068D01*
X125643079Y-57493325D01*
X125861944Y-57518707D01*
%TD*%
D11*
%TO.C,Y1*%
X141475000Y-67785000D03*
X141475000Y-65585000D03*
X143175000Y-65585000D03*
X143175000Y-67785000D03*
%TD*%
D12*
%TO.C,SW6*%
X154040000Y-106080000D03*
X143880000Y-106080000D03*
D13*
X148960000Y-106080000D03*
D14*
X145150000Y-103540000D03*
X151500000Y-101000000D03*
%TD*%
D15*
%TO.C,U1*%
X141037500Y-73225000D03*
G36*
G01*
X143100000Y-71350000D02*
X143850000Y-71350000D01*
G75*
G02*
X143912500Y-71412500I0J-62500D01*
G01*
X143912500Y-71537500D01*
G75*
G02*
X143850000Y-71600000I-62500J0D01*
G01*
X143100000Y-71600000D01*
G75*
G02*
X143037500Y-71537500I0J62500D01*
G01*
X143037500Y-71412500D01*
G75*
G02*
X143100000Y-71350000I62500J0D01*
G01*
G37*
G36*
G01*
X143100000Y-71850000D02*
X143850000Y-71850000D01*
G75*
G02*
X143912500Y-71912500I0J-62500D01*
G01*
X143912500Y-72037500D01*
G75*
G02*
X143850000Y-72100000I-62500J0D01*
G01*
X143100000Y-72100000D01*
G75*
G02*
X143037500Y-72037500I0J62500D01*
G01*
X143037500Y-71912500D01*
G75*
G02*
X143100000Y-71850000I62500J0D01*
G01*
G37*
G36*
G01*
X143100000Y-72350000D02*
X143850000Y-72350000D01*
G75*
G02*
X143912500Y-72412500I0J-62500D01*
G01*
X143912500Y-72537500D01*
G75*
G02*
X143850000Y-72600000I-62500J0D01*
G01*
X143100000Y-72600000D01*
G75*
G02*
X143037500Y-72537500I0J62500D01*
G01*
X143037500Y-72412500D01*
G75*
G02*
X143100000Y-72350000I62500J0D01*
G01*
G37*
G36*
G01*
X143100000Y-72850000D02*
X143850000Y-72850000D01*
G75*
G02*
X143912500Y-72912500I0J-62500D01*
G01*
X143912500Y-73037500D01*
G75*
G02*
X143850000Y-73100000I-62500J0D01*
G01*
X143100000Y-73100000D01*
G75*
G02*
X143037500Y-73037500I0J62500D01*
G01*
X143037500Y-72912500D01*
G75*
G02*
X143100000Y-72850000I62500J0D01*
G01*
G37*
G36*
G01*
X143100000Y-73350000D02*
X143850000Y-73350000D01*
G75*
G02*
X143912500Y-73412500I0J-62500D01*
G01*
X143912500Y-73537500D01*
G75*
G02*
X143850000Y-73600000I-62500J0D01*
G01*
X143100000Y-73600000D01*
G75*
G02*
X143037500Y-73537500I0J62500D01*
G01*
X143037500Y-73412500D01*
G75*
G02*
X143100000Y-73350000I62500J0D01*
G01*
G37*
G36*
G01*
X143100000Y-73850000D02*
X143850000Y-73850000D01*
G75*
G02*
X143912500Y-73912500I0J-62500D01*
G01*
X143912500Y-74037500D01*
G75*
G02*
X143850000Y-74100000I-62500J0D01*
G01*
X143100000Y-74100000D01*
G75*
G02*
X143037500Y-74037500I0J62500D01*
G01*
X143037500Y-73912500D01*
G75*
G02*
X143100000Y-73850000I62500J0D01*
G01*
G37*
G36*
G01*
X143100000Y-74350000D02*
X143850000Y-74350000D01*
G75*
G02*
X143912500Y-74412500I0J-62500D01*
G01*
X143912500Y-74537500D01*
G75*
G02*
X143850000Y-74600000I-62500J0D01*
G01*
X143100000Y-74600000D01*
G75*
G02*
X143037500Y-74537500I0J62500D01*
G01*
X143037500Y-74412500D01*
G75*
G02*
X143100000Y-74350000I62500J0D01*
G01*
G37*
G36*
G01*
X143100000Y-74850000D02*
X143850000Y-74850000D01*
G75*
G02*
X143912500Y-74912500I0J-62500D01*
G01*
X143912500Y-75037500D01*
G75*
G02*
X143850000Y-75100000I-62500J0D01*
G01*
X143100000Y-75100000D01*
G75*
G02*
X143037500Y-75037500I0J62500D01*
G01*
X143037500Y-74912500D01*
G75*
G02*
X143100000Y-74850000I62500J0D01*
G01*
G37*
G36*
G01*
X142725000Y-75225000D02*
X142850000Y-75225000D01*
G75*
G02*
X142912500Y-75287500I0J-62500D01*
G01*
X142912500Y-76037500D01*
G75*
G02*
X142850000Y-76100000I-62500J0D01*
G01*
X142725000Y-76100000D01*
G75*
G02*
X142662500Y-76037500I0J62500D01*
G01*
X142662500Y-75287500D01*
G75*
G02*
X142725000Y-75225000I62500J0D01*
G01*
G37*
G36*
G01*
X142225000Y-75225000D02*
X142350000Y-75225000D01*
G75*
G02*
X142412500Y-75287500I0J-62500D01*
G01*
X142412500Y-76037500D01*
G75*
G02*
X142350000Y-76100000I-62500J0D01*
G01*
X142225000Y-76100000D01*
G75*
G02*
X142162500Y-76037500I0J62500D01*
G01*
X142162500Y-75287500D01*
G75*
G02*
X142225000Y-75225000I62500J0D01*
G01*
G37*
G36*
G01*
X141725000Y-75225000D02*
X141850000Y-75225000D01*
G75*
G02*
X141912500Y-75287500I0J-62500D01*
G01*
X141912500Y-76037500D01*
G75*
G02*
X141850000Y-76100000I-62500J0D01*
G01*
X141725000Y-76100000D01*
G75*
G02*
X141662500Y-76037500I0J62500D01*
G01*
X141662500Y-75287500D01*
G75*
G02*
X141725000Y-75225000I62500J0D01*
G01*
G37*
G36*
G01*
X141225000Y-75225000D02*
X141350000Y-75225000D01*
G75*
G02*
X141412500Y-75287500I0J-62500D01*
G01*
X141412500Y-76037500D01*
G75*
G02*
X141350000Y-76100000I-62500J0D01*
G01*
X141225000Y-76100000D01*
G75*
G02*
X141162500Y-76037500I0J62500D01*
G01*
X141162500Y-75287500D01*
G75*
G02*
X141225000Y-75225000I62500J0D01*
G01*
G37*
G36*
G01*
X140725000Y-75225000D02*
X140850000Y-75225000D01*
G75*
G02*
X140912500Y-75287500I0J-62500D01*
G01*
X140912500Y-76037500D01*
G75*
G02*
X140850000Y-76100000I-62500J0D01*
G01*
X140725000Y-76100000D01*
G75*
G02*
X140662500Y-76037500I0J62500D01*
G01*
X140662500Y-75287500D01*
G75*
G02*
X140725000Y-75225000I62500J0D01*
G01*
G37*
G36*
G01*
X140225000Y-75225000D02*
X140350000Y-75225000D01*
G75*
G02*
X140412500Y-75287500I0J-62500D01*
G01*
X140412500Y-76037500D01*
G75*
G02*
X140350000Y-76100000I-62500J0D01*
G01*
X140225000Y-76100000D01*
G75*
G02*
X140162500Y-76037500I0J62500D01*
G01*
X140162500Y-75287500D01*
G75*
G02*
X140225000Y-75225000I62500J0D01*
G01*
G37*
G36*
G01*
X139725000Y-75225000D02*
X139850000Y-75225000D01*
G75*
G02*
X139912500Y-75287500I0J-62500D01*
G01*
X139912500Y-76037500D01*
G75*
G02*
X139850000Y-76100000I-62500J0D01*
G01*
X139725000Y-76100000D01*
G75*
G02*
X139662500Y-76037500I0J62500D01*
G01*
X139662500Y-75287500D01*
G75*
G02*
X139725000Y-75225000I62500J0D01*
G01*
G37*
G36*
G01*
X139225000Y-75225000D02*
X139350000Y-75225000D01*
G75*
G02*
X139412500Y-75287500I0J-62500D01*
G01*
X139412500Y-76037500D01*
G75*
G02*
X139350000Y-76100000I-62500J0D01*
G01*
X139225000Y-76100000D01*
G75*
G02*
X139162500Y-76037500I0J62500D01*
G01*
X139162500Y-75287500D01*
G75*
G02*
X139225000Y-75225000I62500J0D01*
G01*
G37*
G36*
G01*
X138225000Y-74850000D02*
X138975000Y-74850000D01*
G75*
G02*
X139037500Y-74912500I0J-62500D01*
G01*
X139037500Y-75037500D01*
G75*
G02*
X138975000Y-75100000I-62500J0D01*
G01*
X138225000Y-75100000D01*
G75*
G02*
X138162500Y-75037500I0J62500D01*
G01*
X138162500Y-74912500D01*
G75*
G02*
X138225000Y-74850000I62500J0D01*
G01*
G37*
G36*
G01*
X138225000Y-74350000D02*
X138975000Y-74350000D01*
G75*
G02*
X139037500Y-74412500I0J-62500D01*
G01*
X139037500Y-74537500D01*
G75*
G02*
X138975000Y-74600000I-62500J0D01*
G01*
X138225000Y-74600000D01*
G75*
G02*
X138162500Y-74537500I0J62500D01*
G01*
X138162500Y-74412500D01*
G75*
G02*
X138225000Y-74350000I62500J0D01*
G01*
G37*
G36*
G01*
X138225000Y-73850000D02*
X138975000Y-73850000D01*
G75*
G02*
X139037500Y-73912500I0J-62500D01*
G01*
X139037500Y-74037500D01*
G75*
G02*
X138975000Y-74100000I-62500J0D01*
G01*
X138225000Y-74100000D01*
G75*
G02*
X138162500Y-74037500I0J62500D01*
G01*
X138162500Y-73912500D01*
G75*
G02*
X138225000Y-73850000I62500J0D01*
G01*
G37*
G36*
G01*
X138225000Y-73350000D02*
X138975000Y-73350000D01*
G75*
G02*
X139037500Y-73412500I0J-62500D01*
G01*
X139037500Y-73537500D01*
G75*
G02*
X138975000Y-73600000I-62500J0D01*
G01*
X138225000Y-73600000D01*
G75*
G02*
X138162500Y-73537500I0J62500D01*
G01*
X138162500Y-73412500D01*
G75*
G02*
X138225000Y-73350000I62500J0D01*
G01*
G37*
G36*
G01*
X138225000Y-72850000D02*
X138975000Y-72850000D01*
G75*
G02*
X139037500Y-72912500I0J-62500D01*
G01*
X139037500Y-73037500D01*
G75*
G02*
X138975000Y-73100000I-62500J0D01*
G01*
X138225000Y-73100000D01*
G75*
G02*
X138162500Y-73037500I0J62500D01*
G01*
X138162500Y-72912500D01*
G75*
G02*
X138225000Y-72850000I62500J0D01*
G01*
G37*
G36*
G01*
X138225000Y-72350000D02*
X138975000Y-72350000D01*
G75*
G02*
X139037500Y-72412500I0J-62500D01*
G01*
X139037500Y-72537500D01*
G75*
G02*
X138975000Y-72600000I-62500J0D01*
G01*
X138225000Y-72600000D01*
G75*
G02*
X138162500Y-72537500I0J62500D01*
G01*
X138162500Y-72412500D01*
G75*
G02*
X138225000Y-72350000I62500J0D01*
G01*
G37*
G36*
G01*
X138225000Y-71850000D02*
X138975000Y-71850000D01*
G75*
G02*
X139037500Y-71912500I0J-62500D01*
G01*
X139037500Y-72037500D01*
G75*
G02*
X138975000Y-72100000I-62500J0D01*
G01*
X138225000Y-72100000D01*
G75*
G02*
X138162500Y-72037500I0J62500D01*
G01*
X138162500Y-71912500D01*
G75*
G02*
X138225000Y-71850000I62500J0D01*
G01*
G37*
G36*
G01*
X138225000Y-71350000D02*
X138975000Y-71350000D01*
G75*
G02*
X139037500Y-71412500I0J-62500D01*
G01*
X139037500Y-71537500D01*
G75*
G02*
X138975000Y-71600000I-62500J0D01*
G01*
X138225000Y-71600000D01*
G75*
G02*
X138162500Y-71537500I0J62500D01*
G01*
X138162500Y-71412500D01*
G75*
G02*
X138225000Y-71350000I62500J0D01*
G01*
G37*
G36*
G01*
X139225000Y-70350000D02*
X139350000Y-70350000D01*
G75*
G02*
X139412500Y-70412500I0J-62500D01*
G01*
X139412500Y-71162500D01*
G75*
G02*
X139350000Y-71225000I-62500J0D01*
G01*
X139225000Y-71225000D01*
G75*
G02*
X139162500Y-71162500I0J62500D01*
G01*
X139162500Y-70412500D01*
G75*
G02*
X139225000Y-70350000I62500J0D01*
G01*
G37*
G36*
G01*
X139725000Y-70350000D02*
X139850000Y-70350000D01*
G75*
G02*
X139912500Y-70412500I0J-62500D01*
G01*
X139912500Y-71162500D01*
G75*
G02*
X139850000Y-71225000I-62500J0D01*
G01*
X139725000Y-71225000D01*
G75*
G02*
X139662500Y-71162500I0J62500D01*
G01*
X139662500Y-70412500D01*
G75*
G02*
X139725000Y-70350000I62500J0D01*
G01*
G37*
G36*
G01*
X140225000Y-70350000D02*
X140350000Y-70350000D01*
G75*
G02*
X140412500Y-70412500I0J-62500D01*
G01*
X140412500Y-71162500D01*
G75*
G02*
X140350000Y-71225000I-62500J0D01*
G01*
X140225000Y-71225000D01*
G75*
G02*
X140162500Y-71162500I0J62500D01*
G01*
X140162500Y-70412500D01*
G75*
G02*
X140225000Y-70350000I62500J0D01*
G01*
G37*
G36*
G01*
X140725000Y-70350000D02*
X140850000Y-70350000D01*
G75*
G02*
X140912500Y-70412500I0J-62500D01*
G01*
X140912500Y-71162500D01*
G75*
G02*
X140850000Y-71225000I-62500J0D01*
G01*
X140725000Y-71225000D01*
G75*
G02*
X140662500Y-71162500I0J62500D01*
G01*
X140662500Y-70412500D01*
G75*
G02*
X140725000Y-70350000I62500J0D01*
G01*
G37*
G36*
G01*
X141225000Y-70350000D02*
X141350000Y-70350000D01*
G75*
G02*
X141412500Y-70412500I0J-62500D01*
G01*
X141412500Y-71162500D01*
G75*
G02*
X141350000Y-71225000I-62500J0D01*
G01*
X141225000Y-71225000D01*
G75*
G02*
X141162500Y-71162500I0J62500D01*
G01*
X141162500Y-70412500D01*
G75*
G02*
X141225000Y-70350000I62500J0D01*
G01*
G37*
G36*
G01*
X141725000Y-70350000D02*
X141850000Y-70350000D01*
G75*
G02*
X141912500Y-70412500I0J-62500D01*
G01*
X141912500Y-71162500D01*
G75*
G02*
X141850000Y-71225000I-62500J0D01*
G01*
X141725000Y-71225000D01*
G75*
G02*
X141662500Y-71162500I0J62500D01*
G01*
X141662500Y-70412500D01*
G75*
G02*
X141725000Y-70350000I62500J0D01*
G01*
G37*
G36*
G01*
X142225000Y-70350000D02*
X142350000Y-70350000D01*
G75*
G02*
X142412500Y-70412500I0J-62500D01*
G01*
X142412500Y-71162500D01*
G75*
G02*
X142350000Y-71225000I-62500J0D01*
G01*
X142225000Y-71225000D01*
G75*
G02*
X142162500Y-71162500I0J62500D01*
G01*
X142162500Y-70412500D01*
G75*
G02*
X142225000Y-70350000I62500J0D01*
G01*
G37*
G36*
G01*
X142725000Y-70350000D02*
X142850000Y-70350000D01*
G75*
G02*
X142912500Y-70412500I0J-62500D01*
G01*
X142912500Y-71162500D01*
G75*
G02*
X142850000Y-71225000I-62500J0D01*
G01*
X142725000Y-71225000D01*
G75*
G02*
X142662500Y-71162500I0J62500D01*
G01*
X142662500Y-70412500D01*
G75*
G02*
X142725000Y-70350000I62500J0D01*
G01*
G37*
%TD*%
D16*
%TO.C,SW1*%
X145745000Y-62655000D03*
X139245000Y-62655000D03*
X145745000Y-58155000D03*
X139245000Y-58155000D03*
%TD*%
%TO.C,R12*%
G36*
G01*
X146145000Y-76250000D02*
X146145000Y-75700000D01*
G75*
G02*
X146345000Y-75500000I200000J0D01*
G01*
X146745000Y-75500000D01*
G75*
G02*
X146945000Y-75700000I0J-200000D01*
G01*
X146945000Y-76250000D01*
G75*
G02*
X146745000Y-76450000I-200000J0D01*
G01*
X146345000Y-76450000D01*
G75*
G02*
X146145000Y-76250000I0J200000D01*
G01*
G37*
G36*
G01*
X144495000Y-76250000D02*
X144495000Y-75700000D01*
G75*
G02*
X144695000Y-75500000I200000J0D01*
G01*
X145095000Y-75500000D01*
G75*
G02*
X145295000Y-75700000I0J-200000D01*
G01*
X145295000Y-76250000D01*
G75*
G02*
X145095000Y-76450000I-200000J0D01*
G01*
X144695000Y-76450000D01*
G75*
G02*
X144495000Y-76250000I0J200000D01*
G01*
G37*
%TD*%
%TO.C,R11*%
G36*
G01*
X178389062Y-63075000D02*
X178389062Y-62525000D01*
G75*
G02*
X178589062Y-62325000I200000J0D01*
G01*
X178989062Y-62325000D01*
G75*
G02*
X179189062Y-62525000I0J-200000D01*
G01*
X179189062Y-63075000D01*
G75*
G02*
X178989062Y-63275000I-200000J0D01*
G01*
X178589062Y-63275000D01*
G75*
G02*
X178389062Y-63075000I0J200000D01*
G01*
G37*
G36*
G01*
X176739062Y-63075000D02*
X176739062Y-62525000D01*
G75*
G02*
X176939062Y-62325000I200000J0D01*
G01*
X177339062Y-62325000D01*
G75*
G02*
X177539062Y-62525000I0J-200000D01*
G01*
X177539062Y-63075000D01*
G75*
G02*
X177339062Y-63275000I-200000J0D01*
G01*
X176939062Y-63275000D01*
G75*
G02*
X176739062Y-63075000I0J200000D01*
G01*
G37*
%TD*%
%TO.C,R10*%
G36*
G01*
X178389062Y-72450000D02*
X178389062Y-71900000D01*
G75*
G02*
X178589062Y-71700000I200000J0D01*
G01*
X178989062Y-71700000D01*
G75*
G02*
X179189062Y-71900000I0J-200000D01*
G01*
X179189062Y-72450000D01*
G75*
G02*
X178989062Y-72650000I-200000J0D01*
G01*
X178589062Y-72650000D01*
G75*
G02*
X178389062Y-72450000I0J200000D01*
G01*
G37*
G36*
G01*
X176739062Y-72450000D02*
X176739062Y-71900000D01*
G75*
G02*
X176939062Y-71700000I200000J0D01*
G01*
X177339062Y-71700000D01*
G75*
G02*
X177539062Y-71900000I0J-200000D01*
G01*
X177539062Y-72450000D01*
G75*
G02*
X177339062Y-72650000I-200000J0D01*
G01*
X176939062Y-72650000D01*
G75*
G02*
X176739062Y-72450000I0J200000D01*
G01*
G37*
%TD*%
%TO.C,R9*%
G36*
G01*
X177539062Y-59400000D02*
X177539062Y-59950000D01*
G75*
G02*
X177339062Y-60150000I-200000J0D01*
G01*
X176939062Y-60150000D01*
G75*
G02*
X176739062Y-59950000I0J200000D01*
G01*
X176739062Y-59400000D01*
G75*
G02*
X176939062Y-59200000I200000J0D01*
G01*
X177339062Y-59200000D01*
G75*
G02*
X177539062Y-59400000I0J-200000D01*
G01*
G37*
G36*
G01*
X179189062Y-59400000D02*
X179189062Y-59950000D01*
G75*
G02*
X178989062Y-60150000I-200000J0D01*
G01*
X178589062Y-60150000D01*
G75*
G02*
X178389062Y-59950000I0J200000D01*
G01*
X178389062Y-59400000D01*
G75*
G02*
X178589062Y-59200000I200000J0D01*
G01*
X178989062Y-59200000D01*
G75*
G02*
X179189062Y-59400000I0J-200000D01*
G01*
G37*
%TD*%
%TO.C,R8*%
G36*
G01*
X177539062Y-68775000D02*
X177539062Y-69325000D01*
G75*
G02*
X177339062Y-69525000I-200000J0D01*
G01*
X176939062Y-69525000D01*
G75*
G02*
X176739062Y-69325000I0J200000D01*
G01*
X176739062Y-68775000D01*
G75*
G02*
X176939062Y-68575000I200000J0D01*
G01*
X177339062Y-68575000D01*
G75*
G02*
X177539062Y-68775000I0J-200000D01*
G01*
G37*
G36*
G01*
X179189062Y-68775000D02*
X179189062Y-69325000D01*
G75*
G02*
X178989062Y-69525000I-200000J0D01*
G01*
X178589062Y-69525000D01*
G75*
G02*
X178389062Y-69325000I0J200000D01*
G01*
X178389062Y-68775000D01*
G75*
G02*
X178589062Y-68575000I200000J0D01*
G01*
X178989062Y-68575000D01*
G75*
G02*
X179189062Y-68775000I0J-200000D01*
G01*
G37*
%TD*%
%TO.C,R7*%
G36*
G01*
X155760000Y-75410000D02*
X155760000Y-74860000D01*
G75*
G02*
X155960000Y-74660000I200000J0D01*
G01*
X156360000Y-74660000D01*
G75*
G02*
X156560000Y-74860000I0J-200000D01*
G01*
X156560000Y-75410000D01*
G75*
G02*
X156360000Y-75610000I-200000J0D01*
G01*
X155960000Y-75610000D01*
G75*
G02*
X155760000Y-75410000I0J200000D01*
G01*
G37*
G36*
G01*
X154110000Y-75410000D02*
X154110000Y-74860000D01*
G75*
G02*
X154310000Y-74660000I200000J0D01*
G01*
X154710000Y-74660000D01*
G75*
G02*
X154910000Y-74860000I0J-200000D01*
G01*
X154910000Y-75410000D01*
G75*
G02*
X154710000Y-75610000I-200000J0D01*
G01*
X154310000Y-75610000D01*
G75*
G02*
X154110000Y-75410000I0J200000D01*
G01*
G37*
%TD*%
%TO.C,R6*%
G36*
G01*
X155750000Y-73840000D02*
X155750000Y-73290000D01*
G75*
G02*
X155950000Y-73090000I200000J0D01*
G01*
X156350000Y-73090000D01*
G75*
G02*
X156550000Y-73290000I0J-200000D01*
G01*
X156550000Y-73840000D01*
G75*
G02*
X156350000Y-74040000I-200000J0D01*
G01*
X155950000Y-74040000D01*
G75*
G02*
X155750000Y-73840000I0J200000D01*
G01*
G37*
G36*
G01*
X154100000Y-73840000D02*
X154100000Y-73290000D01*
G75*
G02*
X154300000Y-73090000I200000J0D01*
G01*
X154700000Y-73090000D01*
G75*
G02*
X154900000Y-73290000I0J-200000D01*
G01*
X154900000Y-73840000D01*
G75*
G02*
X154700000Y-74040000I-200000J0D01*
G01*
X154300000Y-74040000D01*
G75*
G02*
X154100000Y-73840000I0J200000D01*
G01*
G37*
%TD*%
%TO.C,R5*%
G36*
G01*
X158850000Y-75410000D02*
X158850000Y-74860000D01*
G75*
G02*
X159050000Y-74660000I200000J0D01*
G01*
X159450000Y-74660000D01*
G75*
G02*
X159650000Y-74860000I0J-200000D01*
G01*
X159650000Y-75410000D01*
G75*
G02*
X159450000Y-75610000I-200000J0D01*
G01*
X159050000Y-75610000D01*
G75*
G02*
X158850000Y-75410000I0J200000D01*
G01*
G37*
G36*
G01*
X157200000Y-75410000D02*
X157200000Y-74860000D01*
G75*
G02*
X157400000Y-74660000I200000J0D01*
G01*
X157800000Y-74660000D01*
G75*
G02*
X158000000Y-74860000I0J-200000D01*
G01*
X158000000Y-75410000D01*
G75*
G02*
X157800000Y-75610000I-200000J0D01*
G01*
X157400000Y-75610000D01*
G75*
G02*
X157200000Y-75410000I0J200000D01*
G01*
G37*
%TD*%
%TO.C,R4*%
G36*
G01*
X158830000Y-73830000D02*
X158830000Y-73280000D01*
G75*
G02*
X159030000Y-73080000I200000J0D01*
G01*
X159430000Y-73080000D01*
G75*
G02*
X159630000Y-73280000I0J-200000D01*
G01*
X159630000Y-73830000D01*
G75*
G02*
X159430000Y-74030000I-200000J0D01*
G01*
X159030000Y-74030000D01*
G75*
G02*
X158830000Y-73830000I0J200000D01*
G01*
G37*
G36*
G01*
X157180000Y-73830000D02*
X157180000Y-73280000D01*
G75*
G02*
X157380000Y-73080000I200000J0D01*
G01*
X157780000Y-73080000D01*
G75*
G02*
X157980000Y-73280000I0J-200000D01*
G01*
X157980000Y-73830000D01*
G75*
G02*
X157780000Y-74030000I-200000J0D01*
G01*
X157380000Y-74030000D01*
G75*
G02*
X157180000Y-73830000I0J200000D01*
G01*
G37*
%TD*%
%TO.C,R3*%
G36*
G01*
X137320000Y-58805000D02*
X136770000Y-58805000D01*
G75*
G02*
X136570000Y-58605000I0J200000D01*
G01*
X136570000Y-58205000D01*
G75*
G02*
X136770000Y-58005000I200000J0D01*
G01*
X137320000Y-58005000D01*
G75*
G02*
X137520000Y-58205000I0J-200000D01*
G01*
X137520000Y-58605000D01*
G75*
G02*
X137320000Y-58805000I-200000J0D01*
G01*
G37*
G36*
G01*
X137320000Y-60455000D02*
X136770000Y-60455000D01*
G75*
G02*
X136570000Y-60255000I0J200000D01*
G01*
X136570000Y-59855000D01*
G75*
G02*
X136770000Y-59655000I200000J0D01*
G01*
X137320000Y-59655000D01*
G75*
G02*
X137520000Y-59855000I0J-200000D01*
G01*
X137520000Y-60255000D01*
G75*
G02*
X137320000Y-60455000I-200000J0D01*
G01*
G37*
%TD*%
%TO.C,R2*%
G36*
G01*
X153690000Y-65540000D02*
X154240000Y-65540000D01*
G75*
G02*
X154440000Y-65740000I0J-200000D01*
G01*
X154440000Y-66140000D01*
G75*
G02*
X154240000Y-66340000I-200000J0D01*
G01*
X153690000Y-66340000D01*
G75*
G02*
X153490000Y-66140000I0J200000D01*
G01*
X153490000Y-65740000D01*
G75*
G02*
X153690000Y-65540000I200000J0D01*
G01*
G37*
G36*
G01*
X153690000Y-63890000D02*
X154240000Y-63890000D01*
G75*
G02*
X154440000Y-64090000I0J-200000D01*
G01*
X154440000Y-64490000D01*
G75*
G02*
X154240000Y-64690000I-200000J0D01*
G01*
X153690000Y-64690000D01*
G75*
G02*
X153490000Y-64490000I0J200000D01*
G01*
X153490000Y-64090000D01*
G75*
G02*
X153690000Y-63890000I200000J0D01*
G01*
G37*
%TD*%
%TO.C,R1*%
G36*
G01*
X152030000Y-65545000D02*
X152580000Y-65545000D01*
G75*
G02*
X152780000Y-65745000I0J-200000D01*
G01*
X152780000Y-66145000D01*
G75*
G02*
X152580000Y-66345000I-200000J0D01*
G01*
X152030000Y-66345000D01*
G75*
G02*
X151830000Y-66145000I0J200000D01*
G01*
X151830000Y-65745000D01*
G75*
G02*
X152030000Y-65545000I200000J0D01*
G01*
G37*
G36*
G01*
X152030000Y-63895000D02*
X152580000Y-63895000D01*
G75*
G02*
X152780000Y-64095000I0J-200000D01*
G01*
X152780000Y-64495000D01*
G75*
G02*
X152580000Y-64695000I-200000J0D01*
G01*
X152030000Y-64695000D01*
G75*
G02*
X151830000Y-64495000I0J200000D01*
G01*
X151830000Y-64095000D01*
G75*
G02*
X152030000Y-63895000I200000J0D01*
G01*
G37*
%TD*%
D17*
%TO.C,J1*%
X149405000Y-57455000D03*
X158045000Y-57455000D03*
D18*
X149405000Y-61280000D03*
X158045000Y-61280000D03*
D19*
X156725000Y-60555000D03*
D20*
X152325000Y-57455000D03*
X155125000Y-57455000D03*
D19*
X150725000Y-60555000D03*
D21*
X150725000Y-60555000D03*
D22*
X152475000Y-61655000D03*
X152975000Y-61655000D03*
X153475000Y-61655000D03*
X153975000Y-61655000D03*
X154475000Y-61655000D03*
X154975000Y-61655000D03*
X151975000Y-61655000D03*
X155475000Y-61655000D03*
D23*
X151375000Y-61655000D03*
X156075000Y-61655000D03*
X150625000Y-61655000D03*
X156825000Y-61655000D03*
%TD*%
D24*
%TO.C,D10*%
X189060000Y-97985000D03*
X186860000Y-97985000D03*
%TD*%
%TO.C,D9*%
X189060000Y-78465000D03*
X186860000Y-78465000D03*
%TD*%
%TO.C,D8*%
X189600000Y-57850000D03*
X187400000Y-57850000D03*
%TD*%
%TO.C,D7*%
X169560000Y-97995000D03*
X167360000Y-97995000D03*
%TD*%
%TO.C,D6*%
X169560000Y-78465000D03*
X167360000Y-78465000D03*
%TD*%
%TO.C,D5*%
X169350000Y-58000000D03*
X167150000Y-58000000D03*
%TD*%
%TO.C,D4*%
X150060000Y-97995000D03*
X147860000Y-97995000D03*
%TD*%
%TO.C,D3*%
X150060000Y-78465000D03*
X147860000Y-78465000D03*
%TD*%
%TO.C,D2*%
X130560000Y-97995000D03*
X128360000Y-97995000D03*
%TD*%
%TO.C,D1*%
X130560000Y-78465000D03*
X128360000Y-78465000D03*
%TD*%
%TO.C,C11*%
G36*
G01*
X177639062Y-65675000D02*
X177639062Y-66175000D01*
G75*
G02*
X177414062Y-66400000I-225000J0D01*
G01*
X176964062Y-66400000D01*
G75*
G02*
X176739062Y-66175000I0J225000D01*
G01*
X176739062Y-65675000D01*
G75*
G02*
X176964062Y-65450000I225000J0D01*
G01*
X177414062Y-65450000D01*
G75*
G02*
X177639062Y-65675000I0J-225000D01*
G01*
G37*
G36*
G01*
X179189062Y-65675000D02*
X179189062Y-66175000D01*
G75*
G02*
X178964062Y-66400000I-225000J0D01*
G01*
X178514062Y-66400000D01*
G75*
G02*
X178289062Y-66175000I0J225000D01*
G01*
X178289062Y-65675000D01*
G75*
G02*
X178514062Y-65450000I225000J0D01*
G01*
X178964062Y-65450000D01*
G75*
G02*
X179189062Y-65675000I0J-225000D01*
G01*
G37*
%TD*%
%TO.C,C10*%
G36*
G01*
X178289062Y-75550000D02*
X178289062Y-75050000D01*
G75*
G02*
X178514062Y-74825000I225000J0D01*
G01*
X178964062Y-74825000D01*
G75*
G02*
X179189062Y-75050000I0J-225000D01*
G01*
X179189062Y-75550000D01*
G75*
G02*
X178964062Y-75775000I-225000J0D01*
G01*
X178514062Y-75775000D01*
G75*
G02*
X178289062Y-75550000I0J225000D01*
G01*
G37*
G36*
G01*
X176739062Y-75550000D02*
X176739062Y-75050000D01*
G75*
G02*
X176964062Y-74825000I225000J0D01*
G01*
X177414062Y-74825000D01*
G75*
G02*
X177639062Y-75050000I0J-225000D01*
G01*
X177639062Y-75550000D01*
G75*
G02*
X177414062Y-75775000I-225000J0D01*
G01*
X176964062Y-75775000D01*
G75*
G02*
X176739062Y-75550000I0J225000D01*
G01*
G37*
%TD*%
%TO.C,C9*%
G36*
G01*
X151920000Y-74885000D02*
X151920000Y-75385000D01*
G75*
G02*
X151695000Y-75610000I-225000J0D01*
G01*
X151245000Y-75610000D01*
G75*
G02*
X151020000Y-75385000I0J225000D01*
G01*
X151020000Y-74885000D01*
G75*
G02*
X151245000Y-74660000I225000J0D01*
G01*
X151695000Y-74660000D01*
G75*
G02*
X151920000Y-74885000I0J-225000D01*
G01*
G37*
G36*
G01*
X153470000Y-74885000D02*
X153470000Y-75385000D01*
G75*
G02*
X153245000Y-75610000I-225000J0D01*
G01*
X152795000Y-75610000D01*
G75*
G02*
X152570000Y-75385000I0J225000D01*
G01*
X152570000Y-74885000D01*
G75*
G02*
X152795000Y-74660000I225000J0D01*
G01*
X153245000Y-74660000D01*
G75*
G02*
X153470000Y-74885000I0J-225000D01*
G01*
G37*
%TD*%
%TO.C,C7*%
G36*
G01*
X146775000Y-70300000D02*
X146275000Y-70300000D01*
G75*
G02*
X146050000Y-70075000I0J225000D01*
G01*
X146050000Y-69625000D01*
G75*
G02*
X146275000Y-69400000I225000J0D01*
G01*
X146775000Y-69400000D01*
G75*
G02*
X147000000Y-69625000I0J-225000D01*
G01*
X147000000Y-70075000D01*
G75*
G02*
X146775000Y-70300000I-225000J0D01*
G01*
G37*
G36*
G01*
X146775000Y-71850000D02*
X146275000Y-71850000D01*
G75*
G02*
X146050000Y-71625000I0J225000D01*
G01*
X146050000Y-71175000D01*
G75*
G02*
X146275000Y-70950000I225000J0D01*
G01*
X146775000Y-70950000D01*
G75*
G02*
X147000000Y-71175000I0J-225000D01*
G01*
X147000000Y-71625000D01*
G75*
G02*
X146775000Y-71850000I-225000J0D01*
G01*
G37*
%TD*%
%TO.C,C6*%
G36*
G01*
X151920000Y-73305000D02*
X151920000Y-73805000D01*
G75*
G02*
X151695000Y-74030000I-225000J0D01*
G01*
X151245000Y-74030000D01*
G75*
G02*
X151020000Y-73805000I0J225000D01*
G01*
X151020000Y-73305000D01*
G75*
G02*
X151245000Y-73080000I225000J0D01*
G01*
X151695000Y-73080000D01*
G75*
G02*
X151920000Y-73305000I0J-225000D01*
G01*
G37*
G36*
G01*
X153470000Y-73305000D02*
X153470000Y-73805000D01*
G75*
G02*
X153245000Y-74030000I-225000J0D01*
G01*
X152795000Y-74030000D01*
G75*
G02*
X152570000Y-73805000I0J225000D01*
G01*
X152570000Y-73305000D01*
G75*
G02*
X152795000Y-73080000I225000J0D01*
G01*
X153245000Y-73080000D01*
G75*
G02*
X153470000Y-73305000I0J-225000D01*
G01*
G37*
%TD*%
%TO.C,C5*%
G36*
G01*
X145225000Y-70300000D02*
X144725000Y-70300000D01*
G75*
G02*
X144500000Y-70075000I0J225000D01*
G01*
X144500000Y-69625000D01*
G75*
G02*
X144725000Y-69400000I225000J0D01*
G01*
X145225000Y-69400000D01*
G75*
G02*
X145450000Y-69625000I0J-225000D01*
G01*
X145450000Y-70075000D01*
G75*
G02*
X145225000Y-70300000I-225000J0D01*
G01*
G37*
G36*
G01*
X145225000Y-71850000D02*
X144725000Y-71850000D01*
G75*
G02*
X144500000Y-71625000I0J225000D01*
G01*
X144500000Y-71175000D01*
G75*
G02*
X144725000Y-70950000I225000J0D01*
G01*
X145225000Y-70950000D01*
G75*
G02*
X145450000Y-71175000I0J-225000D01*
G01*
X145450000Y-71625000D01*
G75*
G02*
X145225000Y-71850000I-225000J0D01*
G01*
G37*
%TD*%
%TO.C,C4*%
G36*
G01*
X139025000Y-67900000D02*
X138525000Y-67900000D01*
G75*
G02*
X138300000Y-67675000I0J225000D01*
G01*
X138300000Y-67225000D01*
G75*
G02*
X138525000Y-67000000I225000J0D01*
G01*
X139025000Y-67000000D01*
G75*
G02*
X139250000Y-67225000I0J-225000D01*
G01*
X139250000Y-67675000D01*
G75*
G02*
X139025000Y-67900000I-225000J0D01*
G01*
G37*
G36*
G01*
X139025000Y-69450000D02*
X138525000Y-69450000D01*
G75*
G02*
X138300000Y-69225000I0J225000D01*
G01*
X138300000Y-68775000D01*
G75*
G02*
X138525000Y-68550000I225000J0D01*
G01*
X139025000Y-68550000D01*
G75*
G02*
X139250000Y-68775000I0J-225000D01*
G01*
X139250000Y-69225000D01*
G75*
G02*
X139025000Y-69450000I-225000J0D01*
G01*
G37*
%TD*%
%TO.C,C3*%
G36*
G01*
X146035000Y-74655000D02*
X146035000Y-74155000D01*
G75*
G02*
X146260000Y-73930000I225000J0D01*
G01*
X146710000Y-73930000D01*
G75*
G02*
X146935000Y-74155000I0J-225000D01*
G01*
X146935000Y-74655000D01*
G75*
G02*
X146710000Y-74880000I-225000J0D01*
G01*
X146260000Y-74880000D01*
G75*
G02*
X146035000Y-74655000I0J225000D01*
G01*
G37*
G36*
G01*
X144485000Y-74655000D02*
X144485000Y-74155000D01*
G75*
G02*
X144710000Y-73930000I225000J0D01*
G01*
X145160000Y-73930000D01*
G75*
G02*
X145385000Y-74155000I0J-225000D01*
G01*
X145385000Y-74655000D01*
G75*
G02*
X145160000Y-74880000I-225000J0D01*
G01*
X144710000Y-74880000D01*
G75*
G02*
X144485000Y-74655000I0J225000D01*
G01*
G37*
%TD*%
%TO.C,C2*%
G36*
G01*
X146000000Y-65325000D02*
X146000000Y-64825000D01*
G75*
G02*
X146225000Y-64600000I225000J0D01*
G01*
X146675000Y-64600000D01*
G75*
G02*
X146900000Y-64825000I0J-225000D01*
G01*
X146900000Y-65325000D01*
G75*
G02*
X146675000Y-65550000I-225000J0D01*
G01*
X146225000Y-65550000D01*
G75*
G02*
X146000000Y-65325000I0J225000D01*
G01*
G37*
G36*
G01*
X144450000Y-65325000D02*
X144450000Y-64825000D01*
G75*
G02*
X144675000Y-64600000I225000J0D01*
G01*
X145125000Y-64600000D01*
G75*
G02*
X145350000Y-64825000I0J-225000D01*
G01*
X145350000Y-65325000D01*
G75*
G02*
X145125000Y-65550000I-225000J0D01*
G01*
X144675000Y-65550000D01*
G75*
G02*
X144450000Y-65325000I0J225000D01*
G01*
G37*
%TD*%
%TO.C,C1*%
G36*
G01*
X146005000Y-66875000D02*
X146005000Y-66375000D01*
G75*
G02*
X146230000Y-66150000I225000J0D01*
G01*
X146680000Y-66150000D01*
G75*
G02*
X146905000Y-66375000I0J-225000D01*
G01*
X146905000Y-66875000D01*
G75*
G02*
X146680000Y-67100000I-225000J0D01*
G01*
X146230000Y-67100000D01*
G75*
G02*
X146005000Y-66875000I0J225000D01*
G01*
G37*
G36*
G01*
X144455000Y-66875000D02*
X144455000Y-66375000D01*
G75*
G02*
X144680000Y-66150000I225000J0D01*
G01*
X145130000Y-66150000D01*
G75*
G02*
X145355000Y-66375000I0J-225000D01*
G01*
X145355000Y-66875000D01*
G75*
G02*
X145130000Y-67100000I-225000J0D01*
G01*
X144680000Y-67100000D01*
G75*
G02*
X144455000Y-66875000I0J225000D01*
G01*
G37*
%TD*%
D12*
%TO.C,SW10*%
X193040000Y-106080000D03*
X182880000Y-106080000D03*
D13*
X187960000Y-106080000D03*
D14*
X184150000Y-103540000D03*
X190500000Y-101000000D03*
%TD*%
D12*
%TO.C,SW9*%
X193040000Y-86580000D03*
X182880000Y-86580000D03*
D13*
X187960000Y-86580000D03*
D14*
X184150000Y-84040000D03*
X190500000Y-81500000D03*
%TD*%
D12*
%TO.C,SW8*%
X173540000Y-106080000D03*
X163380000Y-106080000D03*
D13*
X168460000Y-106080000D03*
D14*
X164650000Y-103540000D03*
X171000000Y-101000000D03*
%TD*%
D12*
%TO.C,SW7*%
X173540000Y-86580000D03*
X163380000Y-86580000D03*
D13*
X168460000Y-86580000D03*
D14*
X164650000Y-84040000D03*
X171000000Y-81500000D03*
%TD*%
D12*
%TO.C,SW5*%
X154040000Y-86580000D03*
X143880000Y-86580000D03*
D13*
X148960000Y-86580000D03*
D14*
X145150000Y-84040000D03*
X151500000Y-81500000D03*
%TD*%
D12*
%TO.C,SW3*%
X134540000Y-106080000D03*
X124380000Y-106080000D03*
D13*
X129460000Y-106080000D03*
D14*
X125650000Y-103540000D03*
X132000000Y-101000000D03*
%TD*%
D12*
%TO.C,SW2*%
X134540000Y-86580000D03*
X124380000Y-86580000D03*
D13*
X129460000Y-86580000D03*
D14*
X125650000Y-84040000D03*
X132000000Y-81500000D03*
%TD*%
D25*
%TO.C,MT2*%
X193660000Y-67000000D03*
X182260000Y-67000000D03*
D26*
X190460000Y-74500000D03*
X187960000Y-74500000D03*
X185460000Y-74500000D03*
X190460000Y-60000000D03*
D27*
X185460000Y-60000000D03*
%TD*%
D25*
%TO.C,MT1*%
X173660000Y-67150000D03*
X162260000Y-67150000D03*
D26*
X170460000Y-74650000D03*
X167960000Y-74650000D03*
X165460000Y-74650000D03*
X170460000Y-60150000D03*
D27*
X165460000Y-60150000D03*
%TD*%
M02*
